<svg width="335" height="158" viewBox="0 0 335 158" fill="none" xmlns="http://www.w3.org/2000/svg">
<rect x="239.594" y="21.9375" width="18.2812" height="113.344" rx="9.14062" fill="black"/>
<rect x="214" width="18.2812" height="157.219" rx="9.14062" fill="black"/>
<rect x="186.578" width="18.2812" height="157.219" rx="9.14062" fill="black"/>
<rect x="160.984" y="21.9375" width="18.2812" height="113.344" rx="9.14062" fill="black"/>
<rect x="135.391" y="38.3906" width="18.2812" height="80.4375" rx="9.14062" fill="black"/>
<rect x="109.797" y="56.6719" width="18.2812" height="43.875" rx="9.14062" fill="black"/>
<rect x="82.375" y="38.3906" width="18.2812" height="80.4375" rx="9.14062" fill="black"/>
<rect x="31.1875" y="38.3906" width="18.2812" height="80.4375" rx="9.14062" fill="black"/>
<rect x="56.7812" y="21.9375" width="18.2812" height="113.344" rx="9.14062" fill="black"/>
<rect x="290.781" y="56.6719" width="18.2812" height="43.875" rx="9.14062" fill="black"/>
<rect x="316.375" y="69.4688" width="18.2812" height="18.2812" rx="9.14062" fill="black"/>
<rect x="5.59375" y="56.6719" width="18.2812" height="43.875" rx="9.14062" fill="black"/>
<rect x="265.188" y="38.3906" width="18.2812" height="80.4375" rx="9.14062" fill="black"/>
</svg>
